# xmcd
#
# Track frame offsets: 
#        150
#        17225
#        29415
#        41205
#        62537
#        78235
#        96447
#        112712
#        127165
#        145370
#        162488
#        182445
#        206342
#        225447
#        245950
#
# Disc length: 3524 seconds
#
# Revision: 1
# Processed by: cddbd v1.5.1PL2 Copyright (c) Steve Scherf et al.
# Submitted via: ExactAudioCopy v0.95b4
#
DISCID=cd0dc20f
DTITLE=Various Artist - Strong women rute the world
DYEAR=1900
DGENRE=
TTITLE0=J. J. Renaux   Our Town
TTITLE1=Kat Eggleston      Home
TTITLE2=Kate McDonnell    Wishbone
TTITLE3=Midy Jostyn    All Roads
TTITLE4=Wendy Beckerman    By your Eyes
TTITLE5=Kate Mac Leod    Angels on my Mind
TTITLE6=Erin Corday    Painter's Eye
TTITLE7=Cody Sheridan   The losing Game
TTITLE8=Suzanne Mc Dermott    And it still is Blue
TTITLE9=Leslie Smith    Midnight Pirouette
TTITLE10=Jane Byaela    Shattered Light
TTITLE11=Robin Greenstein    Slow Burn
TTITLE12=Annie Gallup     John Llewellyn
TTITLE13=Margo Hennebach    Michaelean
TTITLE14=Jano Brindisi    Angels in the Snow
EXTD=
EXTT0=
EXTT1=
EXTT2=
EXTT3=
EXTT4=
EXTT5=
EXTT6=
EXTT7=
EXTT8=
EXTT9=
EXTT10=
EXTT11=
EXTT12=
EXTT13=
EXTT14=
PLAYORDER=
